<svg width="106" height="106" viewBox="0 0 106 106" fill="none" xmlns="http://www.w3.org/2000/svg">
<circle cx="52" cy="47" r="40" fill="white" stroke="#E1E6EA" stroke-width="0.542672"/>
<circle cx="52" cy="47" r="32" fill="white" stroke="#E1E6EA" stroke-width="0.542672"/>
<circle opacity="0.3" cx="76.9231" cy="70.641" r="22.6667" fill="#EBD68D"/>
<path d="M76.9231 58.7804C71.3498 58.7804 66.8318 63.2985 66.8318 68.8717V100.39C66.8318 102.038 68.1672 103.373 69.8146 103.373H84.0316C85.6789 103.373 87.0144 102.038 87.0144 100.39V68.8718C87.0144 63.2985 82.4964 58.7804 76.9231 58.7804Z" fill="#EBD68D" stroke="#FAEEC7" stroke-width="2.74675"/>
<rect x="73.4359" y="95.0256" width="7.84615" height="1.74359" rx="0.871795" fill="#FAEEC7"/>
<rect x="73.4359" y="91.5385" width="7.84615" height="1.74359" rx="0.871795" fill="#FAEEC7"/>
<path d="M72.5641 68.8718C72.5641 66.4644 74.5157 64.5128 76.9231 64.5128C79.3305 64.5128 81.2821 66.4644 81.2821 68.8718V73.2308H72.5641V68.8718Z" fill="white"/>
<path d="M53.9991 43.7092L55.7636 32L44 47.2219H51.0582L48.7054 60.102L61.6454 43.7092H53.9991Z" fill="#C3BEE2"/>
</svg>
