<svg width="106" height="106" viewBox="0 0 106 106" fill="none" xmlns="http://www.w3.org/2000/svg">
<path d="M20 18.7387C20 13.3602 24.3602 9 29.7387 9H74.2613C79.6398 9 84 13.3602 84 18.7387V87.2613C84 92.6398 79.6398 97 74.2613 97H29.7387C24.3602 97 20 92.6398 20 87.2613V18.7387Z" fill="white" stroke="#E1E6EA" stroke-width="0.550619"/>
<path d="M25 19.3048C25 16.3751 27.3751 14 30.3048 14H73.6952C76.6249 14 79 16.3751 79 19.3048V86.6952C79 89.6249 76.6249 92 73.6952 92H30.3048C27.3751 92 25 89.6249 25 86.6952V19.3048Z" fill="white" stroke="#E1E6EA" stroke-width="0.550619"/>
<path fill-rule="evenodd" clip-rule="evenodd" d="M40.0037 43.1749C40.0411 42.3632 39.9001 41.4196 40.2822 40.5082C40.907 39.0176 42.2772 38.0522 43.8842 38.0425C44.819 38.0369 45.7539 38.0368 46.6886 38.0434C47.2824 38.0477 47.577 38.2767 47.6121 38.7358C47.6488 39.2178 47.3629 39.5552 46.7762 39.5884C45.9479 39.6353 45.1158 39.6163 44.2852 39.6248C42.6276 39.6418 41.4974 40.7822 41.4825 42.4602C41.4751 43.298 41.4864 44.136 41.4716 44.9737C41.4643 45.3787 41.2739 45.6864 40.8616 45.7802C40.5373 45.854 40.293 45.6883 40.1121 45.4252C40.0085 45.2744 40.0039 45.0973 40.0038 44.9216C40.0036 44.3804 40.0037 43.8393 40.0037 43.1749Z" fill="#C3BEE2"/>
<path fill-rule="evenodd" clip-rule="evenodd" d="M60.1782 38H60.1985C60.7306 38.0003 61.2607 38.0269 61.7858 38.1112C63.6712 38.4137 64.9743 40.0644 64.9867 42C64.9896 42.4363 64.9873 42.8727 64.9873 43.3091H64.9854C64.9854 43.8677 64.9962 44.4265 64.9821 44.9848C64.9702 45.4545 64.6655 45.7865 64.2709 45.7985C63.8833 45.8105 63.5406 45.4878 63.5251 45.0142C63.4971 44.1598 63.4677 43.3012 63.5186 42.4493C63.5973 41.1303 62.3665 39.4904 60.693 39.6162C60.0216 39.6666 59.3433 39.6317 58.6684 39.6193C58.4107 39.6145 58.1458 39.5943 57.8986 39.5275C57.5391 39.4304 57.381 39.1627 57.3795 38.8198L57.3795 38.8098C57.3796 38.7819 57.3807 38.7534 57.3829 38.7245C57.4111 38.3476 57.6288 38.0738 58.0018 38.0653C58.7255 38.0487 59.4536 38.0004 60.1782 38V38Z" fill="#C3BEE2"/>
<path fill-rule="evenodd" clip-rule="evenodd" d="M40.7352 55.163H40.7374C40.7398 55.163 40.7421 55.163 40.7445 55.163C41.1931 55.1673 41.4724 55.5445 41.4786 56.1814C41.4865 57.0018 41.4715 57.8224 41.4859 58.6425C41.5124 60.148 42.6723 61.3105 44.1655 61.3335C44.8752 61.3444 45.5851 61.331 46.2947 61.3409C46.5356 61.3441 46.7796 61.3655 47.0157 61.4125C47.4397 61.4967 47.6285 61.796 47.6083 62.2099C47.5874 62.6379 47.3353 62.8921 46.9113 62.9072C46.3236 62.9282 45.7346 62.9125 45.146 62.9125V62.92C44.7306 62.92 44.3151 62.9225 43.8996 62.9196C41.7306 62.9046 40.02 61.1805 40.0042 58.988C40.0014 58.5967 40.0002 58.2055 40 57.8142L40 57.6253C40.0002 57.137 40.0019 56.6486 40.0038 56.1603C40.0063 55.5343 40.2829 55.1636 40.7352 55.163L40.7352 55.163Z" fill="#C3BEE2"/>
<path fill-rule="evenodd" clip-rule="evenodd" d="M64.9887 56.7116V56.749C64.9886 57.0728 64.9871 57.411 64.9871 57.7851C64.9527 58.6205 65.0858 59.5634 64.7 60.4738C64.0794 61.9379 62.7098 62.9072 61.136 62.9186C60.7166 62.9216 60.2972 62.9233 59.8778 62.9235H59.67C59.2066 62.9233 58.7432 62.9213 58.2798 62.9174C57.6966 62.9126 57.3993 62.6679 57.3764 62.2039C57.3756 62.1867 57.3752 62.1697 57.3751 62.1529L57.3751 62.1479C57.3762 61.7126 57.6486 61.4103 58.1845 61.3784C59.0125 61.3291 59.8485 61.2906 60.6742 61.3486C62.3625 61.467 63.6122 59.8354 63.5184 58.4785C63.4644 57.6969 63.5021 56.9081 63.5132 56.1228C63.5216 55.5307 63.8164 55.1625 64.2519 55.1628C64.6955 55.1632 64.9799 55.526 64.9859 56.1142C64.988 56.3116 64.9886 56.5089 64.9887 56.7116V56.7116Z" fill="#C3BEE2"/>
<path fill-rule="evenodd" clip-rule="evenodd" d="M52.7058 58.1723C51.0307 58.0903 49.5958 57.5165 48.3966 56.3839C47.9846 55.9947 47.9419 55.5158 48.2569 55.182C48.5959 54.8228 49.0237 54.8571 49.4803 55.3003C50.8304 56.6105 52.3974 56.9694 54.166 56.3672C54.795 56.153 55.3294 55.7596 55.8112 55.2958C56.2552 54.8684 56.676 54.8258 56.9916 55.1588C57.3079 55.4925 57.2498 55.9874 56.8284 56.4018C55.6711 57.5405 54.2495 58.0553 52.7058 58.1723Z" fill="#C3BEE2"/>
<path fill-rule="evenodd" clip-rule="evenodd" d="M53.812 49.5918C53.8038 50.4629 53.8953 51.3364 53.7721 52.2063C53.6124 53.3344 52.1377 54.1862 51.1062 53.728C50.7932 53.589 50.6102 53.3271 50.6539 52.9777C50.6993 52.6154 50.9231 52.3859 51.2911 52.3128C52.0482 52.1625 52.0587 52.1504 52.0595 51.3708C52.0607 50.0442 52.0555 48.7177 52.0597 47.3911C52.0618 46.7075 52.3385 46.3517 52.8664 46.3267C53.393 46.3019 53.762 46.6332 53.8013 47.2897C53.8471 48.0545 53.812 48.8242 53.812 49.5918Z" fill="#C3BEE2"/>
<path fill-rule="evenodd" clip-rule="evenodd" d="M48.6282 48.4109C48.632 48.7402 48.6725 49.0725 48.586 49.3975C48.4503 49.9073 48.0146 50.2489 47.5301 50.224C47.0639 50.1999 46.6363 49.8455 46.5969 49.3316C46.5466 48.6753 46.546 48.0095 46.5942 47.353C46.6332 46.8226 47.0774 46.4621 47.5731 46.4465C48.0472 46.4316 48.4681 46.7941 48.5843 47.3196C48.603 47.4043 48.6246 47.4907 48.6262 47.5766C48.6315 47.8546 48.6282 48.1327 48.6282 48.4109Z" fill="#C3BEE2"/>
<path fill-rule="evenodd" clip-rule="evenodd" d="M56.655 48.3009C56.655 48.0227 56.6356 47.7429 56.659 47.4667C56.7095 46.8699 57.1094 46.4693 57.6483 46.4464C58.1342 46.4258 58.6088 46.8075 58.6854 47.3557C58.7768 48.0102 58.7811 48.6767 58.682 49.3307C58.5986 49.8799 58.1229 50.2508 57.6322 50.2212C57.1117 50.19 56.7177 49.8077 56.6635 49.2393C56.6338 48.9293 56.6582 48.6139 56.6582 48.3009C56.6571 48.3009 56.6561 48.3009 56.655 48.3009Z" fill="#C3BEE2"/>
<path fill-rule="evenodd" clip-rule="evenodd" d="M68 66.7147C68 64.5263 69.3438 62.5625 71.3837 61.77L81.7133 57.7567C82.9649 57.2704 84.3544 57.2768 85.6014 57.7747L95.5638 61.752C97.5795 62.5567 98.9017 64.5083 98.9017 66.6787V79.6976C98.9017 81.3914 98.0929 82.9833 96.7249 83.9821L86.7469 91.2671C84.9037 92.6128 82.4065 92.6289 80.5462 91.3071L70.2323 83.9789C68.8319 82.9839 68 81.3723 68 79.6544V66.7147Z" fill="#D7FBB9"/>
<path fill-rule="evenodd" clip-rule="evenodd" d="M70.2474 66.7917C70.2474 65.6631 70.9617 64.658 72.0275 64.2868L82.7461 60.5541C83.3183 60.3548 83.9416 60.3575 84.5121 60.5617L94.8956 64.2774C95.9504 64.6549 96.6543 65.6544 96.6543 66.7747V79.8398C96.6543 80.6924 96.2445 81.493 95.553 81.9915L85.1605 89.483C84.2445 90.1433 83.0107 90.1513 82.0862 89.5027L71.3766 81.9897C70.6688 81.4932 70.2474 80.6828 70.2474 79.8183V66.7917Z" fill="#B6EB8D"/>
<path d="M79.2383 73.765L82.2023 78.5063L89.6697 71.2601" stroke="white" stroke-width="2.43468" stroke-linecap="round" stroke-linejoin="round"/>
</svg>
