<svg width="96" height="96" viewBox="0 0 96 96" fill="none" xmlns="http://www.w3.org/2000/svg">
<circle cx="47.8793" cy="48" r="37.5" stroke="#262647" stroke-width="3"/>
<mask id="mask0" mask-type="alpha" maskUnits="userSpaceOnUse" x="14" y="14" width="68" height="69">
<path d="M47.9569 82.0899C66.7108 82.0899 81.9138 66.8474 81.9138 48.0449C81.9138 29.2424 66.7108 14 47.9569 14C29.203 14 14 29.2424 14 48.0449C14 66.8474 29.203 82.0899 47.9569 82.0899Z" fill="white"/>
</mask>
<g mask="url(#mask0)">
<path d="M71.0746 53.9213C71.6947 53.8616 71.5722 52.7182 72.0501 51.5719C72.9594 49.3908 76.6032 44.9491 73.4624 42.1851C72.4066 37.0518 66.5731 37.62 62.6798 38.8046C60.0631 39.6007 58.0872 41.1737 57.6647 39.9891C55.0252 42.1851 56.3471 44.3327 58.0872 44.9491C58.1994 44.9889 58.3172 45.0286 58.4407 45.068C58.1112 48.3128 58.2124 53.6393 59.9083 55.9812C60.4781 56.7681 61.3754 57.0758 62.6003 56.9045C62.6019 57.4795 62.6054 57.8023 62.6138 58.4536C62.6124 58.5676 62.6028 58.6786 62.585 58.7868L61.5011 60.3482C56.6535 61.9163 53.813 63.5453 52.9796 65.2353C52.1422 66.9334 51.4823 69.7413 51 73.6591C51 73.6591 56.5809 77.1269 66.9453 77.1269C77.3098 77.1269 82.6741 73.6591 82.6741 73.6591C82.192 69.7417 81.5321 66.9338 80.6945 65.2353C79.8613 63.5458 77.0221 61.9173 72.1768 60.3498C72.175 60.3486 72.1733 60.3474 72.1716 60.3462L71.0854 58.7815C71.0713 58.6917 71.0631 58.6001 71.0609 58.5067C71.0615 58.2924 71.0625 57.9881 71.0639 57.4167C71.0641 57.326 71.0644 57.233 71.0646 57.138C71.067 56.2111 71.0703 55.1051 71.0746 53.9213Z" fill="url(#paint0_linear)"/>
<path d="M49.9789 51.4701C50.7814 51.3934 50.6228 49.9233 51.2413 48.4495C52.418 45.6453 57.1336 39.9345 53.069 36.3807C51.7026 29.7808 44.1534 30.5113 39.1151 32.0343C35.7288 33.058 33.1717 35.0804 32.625 33.5574C29.2091 36.3807 30.9197 39.1419 33.1717 39.9345C33.3169 39.9856 33.4693 40.0367 33.6291 40.0873C33.2027 44.2592 33.3337 51.1076 35.5284 54.1186C36.2658 55.1303 37.4271 55.5259 39.0121 55.3057C39.0143 56.045 39.0188 56.4599 39.0297 57.2974C39.0278 57.4439 39.0154 57.5867 38.9924 57.7258L37.5897 59.7334C31.3163 61.7494 27.6404 63.8439 26.5619 66.0167C25.4782 68.1999 24.6242 71.8101 24 76.8473C24 76.8473 31.0822 82.2375 44.495 82.2375C57.9078 82.2375 65 78 65 78C64.3761 72.9634 63.5121 68.2005 62.4281 66.0167C61.3499 63.8445 57.6756 61.7507 51.4052 59.7354C51.403 59.7339 51.4007 59.7323 51.3985 59.7307L49.9929 57.719C49.9746 57.6035 49.9641 57.4857 49.9612 57.3656C49.9619 57.0901 49.9632 56.6989 49.965 55.9643C49.9653 55.8476 49.9656 55.7281 49.966 55.6059C49.9691 54.4141 49.9734 52.9922 49.9789 51.4701Z" fill="url(#paint1_linear)"/>
<path d="M45.93 63.7678L46.701 77.8952H43L43.771 63.7678C44.2508 63.2559 44.6106 63 44.8505 63C45.0904 63 45.4502 63.2559 45.93 63.7678Z" fill="#4A4483"/>
</g>
<path d="M82.8828 47.5056H91.7586" stroke="#262647" stroke-width="3.9" stroke-linecap="round" stroke-linejoin="round"/>
<path d="M3 47.5056H11.8759" stroke="#262647" stroke-width="3.9" stroke-linecap="round" stroke-linejoin="round"/>
<path d="M47.3793 4V12.8989" stroke="#262647" stroke-width="3.9" stroke-linecap="round" stroke-linejoin="round"/>
<path d="M47.3793 83.1011V92" stroke="#262647" stroke-width="3.9" stroke-linecap="round" stroke-linejoin="round"/>
<defs>
<linearGradient id="paint0_linear" x1="56.4656" y1="27.5096" x2="71.7882" y2="75.5476" gradientUnits="userSpaceOnUse">
<stop stop-color="#5F55A5"/>
<stop offset="1" stop-color="#65629F"/>
</linearGradient>
<linearGradient id="paint1_linear" x1="31.0731" y1="19.742" x2="47.605" y2="76.9833" gradientUnits="userSpaceOnUse">
<stop stop-color="#5F55A5"/>
<stop offset="1" stop-color="#21213F"/>
</linearGradient>
</defs>
</svg>
