<svg width="96" height="96" viewBox="0 0 96 96" fill="none" xmlns="http://www.w3.org/2000/svg">
<path d="M72.3228 46.6105C72.3228 38.4026 71.2928 21.849 71.2928 21.849L39.5012 5C39.5012 5 36.5339 6.58865 35.0502 7.38298C32.4536 8.77311 29.8571 10.1632 27.2606 11.5534L8.5 21.849L7.18488 38.6228C7.07516 41.5671 7 44.3933 7 46.6105C7 54.8184 12.8232 63.9938 39.5012 89C47.0407 82.0168 52.9289 76.2682 57.5 71.4305" stroke="#262647" stroke-width="3" stroke-linecap="round" stroke-linejoin="round"/>
<path d="M31.4111 55.356C35.9727 55.356 38.6489 51.5195 38.6489 45.4551C38.6489 39.4302 35.9595 35.6201 31.4111 35.6201C26.876 35.6201 24.147 39.4434 24.147 45.4683C24.147 51.5327 26.8496 55.356 31.4111 55.356ZM31.4111 52.8774C28.6953 52.8774 27.1396 50.0562 27.1396 45.4683C27.1396 40.9463 28.7217 38.0986 31.4111 38.0986C34.1006 38.0986 35.6694 40.9331 35.6694 45.4683C35.6694 50.0693 34.127 52.8774 31.4111 52.8774ZM39.875 55H43.1445L47.9434 47.749H48.0356L52.7686 55H56.2227L49.8945 45.5605V45.4814L56.3413 35.9761H53.0059L48.2598 43.3325H48.1543L43.4609 35.9761H39.9409L46.1899 45.376V45.4683L39.875 55Z" fill="#262647"/>
<path fill-rule="evenodd" clip-rule="evenodd" d="M93.4857 71.4995V88.6362C93.4525 88.7241 93.4243 88.8138 93.4014 88.9049C93.1324 90.6898 91.8684 92.1677 90.1412 92.7168C89.8063 92.8242 89.4656 92.9125 89.1206 92.9813H65.3972L64.8447 92.847C62.6174 92.3745 61.031 90.4078 61.049 88.1408C61.0181 82.7533 61.0181 77.3699 61.049 71.9907C61.0264 69.3453 63.1625 67.1825 65.8201 67.16C65.89 67.1594 65.96 67.1603 66.0299 67.1628H88.4711C90.9275 67.0818 93.0525 68.8517 93.4056 71.2728C93.4266 71.3502 93.4534 71.426 93.4857 71.4995Z" fill="url(#paint0_linear)"/>
<path fill-rule="evenodd" clip-rule="evenodd" d="M77.9991 49.5C78.8974 49.6637 79.8168 49.7603 80.6983 49.9996C83.1955 50.6612 85.3286 52.279 86.6323 54.5C88.1084 56.9055 88.5766 59.5713 88.6103 62.3421V63.9752C88.6103 63.9752 88.5 66 86.5 66C84.5 66 83.7686 64.7695 83.7686 63.9752C83.7686 63.1808 83.7686 63.442 83.7686 63.442C83.8467 61.9531 83.7046 60.4608 83.3469 59.013C82.786 57.0566 81.7738 55.3774 79.703 54.7435C77.3159 53.992 74.9963 54.097 73.0098 55.835C71.8163 56.8803 71.2553 58.3035 71.0065 59.8232C70.8462 60.8014 70.8252 61.8047 70.7577 62.7997C70.7324 63.1817 70.7577 63.5637 70.7577 63.9794C70.7577 63.9794 70.5 66 68.5 66C66 66 65.916 63.9794 65.916 63.9794V62.531C65.916 60.1339 66.2492 57.7913 67.312 55.6041C68.9484 52.2456 71.6138 50.2347 75.3252 49.6679L76.5145 49.5H77.9991Z" fill="url(#paint1_linear)"/>
<defs>
<linearGradient id="paint0_linear" x1="87.8845" y1="60.2368" x2="81.0006" y2="93.7505" gradientUnits="userSpaceOnUse">
<stop stop-color="#5F55A5"/>
<stop offset="1" stop-color="#21213F"/>
</linearGradient>
<linearGradient id="paint1_linear" x1="84.6942" y1="47.1179" x2="81.5529" y2="66.1861" gradientUnits="userSpaceOnUse">
<stop stop-color="#5F55A5"/>
<stop offset="1" stop-color="#21213F"/>
</linearGradient>
</defs>
</svg>
