<svg width="50" height="50" viewBox="0 0 50 50" fill="none" xmlns="http://www.w3.org/2000/svg">
<path d="M50 34.227C50 34.2301 50 34.23 50 34.2331C50.0002 34.332 50.0066 39.4647 49.4447 41.7017C48.8773 43.9604 47.8355 45.5352 46.6809 46.6895C45.5213 47.8489 43.9851 48.9031 41.6435 49.4524C39.3253 49.9962 34.3221 49.9921 34.2226 49.992C34.2195 49.992 34.2196 49.992 34.2165 49.992L15.7667 50C15.7642 50 15.7645 50 15.7619 50C15.6808 50.0001 10.5329 50.0076 8.29171 49.4448C6.03262 48.8775 4.45756 47.8358 3.30309 46.6815C2.14345 45.522 1.08908 43.9861 0.539725 41.6449C-0.00517469 39.3227 -9.92485e-05 34.3059 1.88349e-05 34.2247C2.25183e-05 34.2221 2.04338e-05 34.2224 2.04338e-05 34.2199V15.773C2.04338e-05 15.7699 2.31182e-05 15.77 1.7551e-05 15.7669C-0.000160435 15.6676 -0.00661776 10.5352 0.555303 8.29835C1.12267 6.03962 2.16454 4.46486 3.31906 3.31057C4.47871 2.15111 6.0149 1.09686 8.35646 0.547597C10.6747 0.00380416 15.6779 0.00786159 15.7773 0.00799642C15.7804 0.00800064 15.7804 0.00799807 15.7835 0.00799672L34.2333 2.18277e-05C34.2358 2.07402e-05 34.2355 2.29903e-05 34.238 1.82469e-05C34.3188 -0.0001339 39.467 -0.00761382 41.7083 0.555214C43.9674 1.1225 45.5424 2.1642 46.6969 3.31853C47.8565 4.478 48.9109 6.01394 49.4603 8.35513C50.0052 10.6774 50.0001 15.6941 50 15.7753C50 15.7779 50 15.7776 50 15.7801V34.227Z" fill="url(#paint0_linear)"/>
<path d="M3.49582 3.48737L3.49582 3.48737C4.62717 2.3562 6.12326 1.32823 8.41355 0.790991C9.54694 0.525134 11.3554 0.390593 12.9097 0.323592C14.4575 0.256875 15.729 0.257931 15.777 0.257996L15.7836 0.257997L34.2334 0.250022L34.2385 0.250018C34.2772 0.249945 35.5802 0.248032 37.1521 0.316263C38.7318 0.384832 40.5549 0.523329 41.6474 0.797686C43.8594 1.35315 45.3952 2.37054 46.5201 3.49532C47.6514 4.62649 48.6796 6.12233 49.2169 8.41224C49.4833 9.54759 49.6179 11.3604 49.6847 12.9164C49.7513 14.4657 49.75 15.7361 49.75 15.775L49.75 15.7801V34.227L49.75 34.2335C49.7501 34.2813 49.7517 35.5849 49.6833 37.1547C49.6146 38.7323 49.4761 40.5504 49.2022 41.6407C48.6467 43.8524 47.6291 45.388 46.5042 46.5127C45.3728 47.6438 43.8767 48.6718 41.5864 49.209C40.453 49.4749 38.6446 49.6094 37.0903 49.6764C35.5425 49.7431 34.271 49.7421 34.223 49.742H34.2163L15.7666 49.75L15.7615 49.75C15.7226 49.7501 14.4196 49.752 12.8477 49.6838C11.268 49.6152 9.4451 49.4767 8.3526 49.2024C6.14056 48.6468 4.60477 47.6294 3.47986 46.5047C2.34851 45.3735 1.32044 43.8777 0.783115 41.5878C0.516714 40.4524 0.382147 38.6396 0.31526 37.0836C0.248656 35.5343 0.249962 34.2639 0.250019 34.225L0.25002 34.2199V15.773L0.250017 15.7664C0.249931 15.7185 0.248267 14.4148 0.316636 12.8451C0.385343 11.2676 0.523865 9.44958 0.797769 8.35926L0.555482 8.29839L0.79777 8.35925C1.35332 6.14759 2.37086 4.6121 3.49582 3.48737Z" stroke="white" stroke-opacity="0.175426" stroke-width="0.5"/>
<path fill-rule="evenodd" clip-rule="evenodd" d="M25.9664 22.694L38.496 29.6863C38.9783 29.9554 39.1511 30.5646 38.882 31.0469C38.7916 31.2088 38.658 31.3424 38.496 31.4328L25.9664 38.425C25.0577 38.9321 23.9512 38.9321 23.0425 38.425L10.5129 31.4328C10.0306 31.1636 9.85782 30.5545 10.127 30.0722C10.2173 29.9103 10.3509 29.7767 10.5129 29.6863L23.0425 22.694C23.9512 22.1869 25.0577 22.1869 25.9664 22.694Z" fill="#067FB8"/>
<path fill-rule="evenodd" clip-rule="evenodd" d="M25.9664 17.694L38.496 24.6863C38.9783 24.9554 39.1511 25.5646 38.882 26.0469C38.7916 26.2088 38.658 26.3424 38.496 26.4328L25.9664 33.425C25.0577 33.9321 23.9512 33.9321 23.0425 33.425L10.5129 26.4328C10.0306 26.1636 9.85782 25.5545 10.127 25.0722C10.2173 24.9103 10.3509 24.7767 10.5129 24.6863L23.0425 17.694C23.9512 17.1869 25.0577 17.1869 25.9664 17.694Z" fill="#10BBCE"/>
<path fill-rule="evenodd" clip-rule="evenodd" d="M25.9664 12.3803L38.496 19.3726C38.9783 19.6417 39.1511 20.2509 38.882 20.7331C38.7916 20.8951 38.658 21.0287 38.496 21.119L25.9664 28.1113C25.0577 28.6184 23.9512 28.6184 23.0425 28.1113L10.5129 21.119C10.0306 20.8499 9.85782 20.2408 10.127 19.7585C10.2173 19.5966 10.3509 19.463 10.5129 19.3726L23.0425 12.3803C23.9512 11.8732 25.0577 11.8732 25.9664 12.3803Z" fill="white"/>
<defs>
<linearGradient id="paint0_linear" x1="47.6339" y1="3.10424e-06" x2="4.69913" y2="47.5612" gradientUnits="userSpaceOnUse">
<stop stop-color="#383D7E"/>
<stop offset="1" stop-color="#2E3262"/>
</linearGradient>
</defs>
</svg>
